<svg width="15" height="14" viewBox="0 0 15 14" fill="none" xmlns="http://www.w3.org/2000/svg">
<path d="M0.881348 13.6694C0.997559 13.7856 1.13428 13.8643 1.2915 13.9053C1.44873 13.9463 1.60596 13.9463 1.76318 13.9053C1.92725 13.8643 2.06738 13.7856 2.18359 13.6694L7.43359 8.40918L12.6938 13.6694C12.8101 13.7856 12.9468 13.8643 13.104 13.9053C13.2612 13.9463 13.4185 13.9463 13.5757 13.9053C13.7329 13.8643 13.8696 13.7856 13.9858 13.6694C14.1089 13.5532 14.1875 13.4165 14.2217 13.2593C14.2627 13.0952 14.2627 12.9346 14.2217 12.7773C14.1875 12.6201 14.1089 12.4834 13.9858 12.3672L8.73584 7.10693L13.9858 1.85693C14.1089 1.74072 14.1875 1.604 14.2217 1.44678C14.2627 1.28955 14.2627 1.13232 14.2217 0.975098C14.1875 0.811035 14.1089 0.670898 13.9858 0.554688C13.8696 0.438477 13.7329 0.359863 13.5757 0.318848C13.4185 0.277832 13.2612 0.277832 13.104 0.318848C12.9468 0.359863 12.8101 0.438477 12.6938 0.554688L7.43359 5.81494L2.18359 0.554688C2.06738 0.438477 1.92725 0.359863 1.76318 0.318848C1.60596 0.277832 1.44873 0.277832 1.2915 0.318848C1.13428 0.359863 0.997559 0.438477 0.881348 0.554688C0.758301 0.670898 0.67627 0.811035 0.635254 0.975098C0.601074 1.13232 0.604492 1.28955 0.645508 1.44678C0.686523 1.604 0.765137 1.74072 0.881348 1.85693L6.1416 7.10693L0.881348 12.3672C0.765137 12.4834 0.686523 12.6201 0.645508 12.7773C0.604492 12.9346 0.601074 13.0952 0.635254 13.2593C0.67627 13.4165 0.758301 13.5532 0.881348 13.6694Z" fill="#767B8A"/>
</svg>
