<svg width="24" height="25" viewBox="0 0 24 25" fill="none" xmlns="http://www.w3.org/2000/svg">
<path d="M15.9844 14.25C16.3652 14.25 16.6875 14.5723 16.6875 14.9531V18.2344C16.6875 19.1426 15.9258 19.875 15.0469 19.875H6.14062C5.23242 19.875 4.5 19.1426 4.5 18.2344V9.32812C4.5 8.44922 5.23242 7.6875 6.14062 7.6875H9.42188C9.80273 7.6875 10.125 8.00977 10.125 8.39062C10.125 8.80078 9.80273 9.09375 9.42188 9.09375H6.14062C5.99414 9.09375 5.90625 9.21094 5.90625 9.32812V18.2344C5.90625 18.3809 5.99414 18.4688 6.14062 18.4688H15.0469C15.1641 18.4688 15.2812 18.3809 15.2812 18.2344V14.9531C15.2812 14.5723 15.5742 14.25 15.9844 14.25ZM18.7969 4.875C19.1777 4.875 19.5 5.19727 19.5 5.57812V10.5C19.5 10.9102 19.1777 11.2031 18.7969 11.2031C18.3867 11.2031 18.0938 10.9102 18.0938 10.5V7.27734L10.8281 14.5137C10.7109 14.6602 10.5352 14.7188 10.3594 14.7188C10.1543 14.7188 9.97852 14.6602 9.86133 14.5137C9.56836 14.25 9.56836 13.8105 9.86133 13.5176L17.0977 6.28125H13.875C13.4648 6.28125 13.1719 5.98828 13.1719 5.57812C13.1719 5.19727 13.4648 4.875 13.875 4.875H18.7969Z" fill="#3354FF"/>
</svg>
