<svg width="16" height="16" viewBox="0 0 16 16" fill="none" xmlns="http://www.w3.org/2000/svg">
<path d="M8.00199 10.5C8.78957 10.5 9.45835 10.2243 10.0084 9.67299C10.5584 9.12169 10.8334 8.45225 10.8334 7.66466C10.8334 6.87708 10.5577 6.20829 10.0064 5.65829C9.45509 5.10829 8.78564 4.83329 7.99805 4.83329C7.21048 4.83329 6.54169 5.10895 5.99169 5.66026C5.44169 6.21156 5.16669 6.881 5.16669 7.66859C5.16669 8.45617 5.44234 9.12496 5.99365 9.67496C6.54495 10.225 7.2144 10.5 8.00199 10.5ZM7.9961 9.53329C7.47649 9.53329 7.03613 9.35143 6.67502 8.98771C6.31391 8.62398 6.13335 8.18231 6.13335 7.66271C6.13335 7.1431 6.31521 6.70274 6.67894 6.34163C7.04267 5.98052 7.48434 5.79996 8.00394 5.79996C8.52355 5.79996 8.96391 5.98182 9.32502 6.34554C9.68613 6.70928 9.86669 7.15094 9.86669 7.67054C9.86669 8.19015 9.68483 8.63052 9.3211 8.99163C8.95737 9.35274 8.5157 9.53329 7.9961 9.53329ZM8.00002 12.6666C6.3778 12.6666 4.91113 12.2055 3.60002 11.2833C2.28891 10.3611 1.31113 9.15552 0.666687 7.66663C1.31113 6.17774 2.28891 4.97218 3.60002 4.04996C4.91113 3.12774 6.3778 2.66663 8.00002 2.66663C9.62224 2.66663 11.0889 3.12774 12.4 4.04996C13.7111 4.97218 14.6889 6.17774 15.3334 7.66663C14.6889 9.15552 13.7111 10.3611 12.4 11.2833C11.0889 12.2055 9.62224 12.6666 8.00002 12.6666ZM7.9972 11.6666C9.34353 11.6666 10.5806 11.3027 11.7084 10.575C12.8361 9.84718 13.6945 8.87774 14.2834 7.66663C13.6945 6.45552 12.8371 5.48607 11.7112 4.75829C10.5853 4.03051 9.34915 3.66663 8.00284 3.66663C6.65652 3.66663 5.41947 4.03051 4.29169 4.75829C3.16391 5.48607 2.30002 6.45552 1.70002 7.66663C2.30002 8.87774 3.16297 9.84718 4.28887 10.575C5.41478 11.3027 6.65089 11.6666 7.9972 11.6666Z" fill="#767B8A"/>
</svg>
