<svg width="16" height="18" viewBox="0 0 16 18" fill="none" xmlns="http://www.w3.org/2000/svg">
<path d="M6.42497 7.5834V7.06346C6.24448 7.03488 6.06219 7.01923 5.87948 7.01661C4.11056 7.01283 2.54449 8.15916 2.01328 9.84642C1.48207 11.5337 2.1091 13.3704 3.56106 14.3807C3.02862 13.8108 2.67249 13.0991 2.53566 12.3313C2.39883 11.5635 2.48714 10.7726 2.78994 10.0539C3.09273 9.3352 3.59707 8.71951 4.24207 8.28115C4.88707 7.84278 5.64517 7.60047 6.42485 7.58346L6.42497 7.5834Z" fill="#25F4EE"/>
<path d="M6.52304 13.473C7.51206 13.4716 8.32501 12.6925 8.36831 11.7044V2.88715H9.97911C9.94624 2.7029 9.93056 2.516 9.93226 2.32886L7.72901 2.32886V11.1376C7.69237 12.1307 6.87747 12.9174 5.88374 12.919C5.58677 12.9164 5.29465 12.8434 5.03143 12.7059C5.20203 12.9422 5.42607 13.1349 5.68529 13.2682C5.9445 13.4015 6.23156 13.4717 6.52304 13.473ZM12.9878 5.87875V5.38867C12.395 5.3889 11.8153 5.21397 11.3216 4.88584C11.7544 5.38902 12.3393 5.73756 12.9878 5.87875Z" fill="#25F4EE"/>
<path d="M11.3217 4.8858C10.8352 4.33194 10.5671 3.61994 10.5674 2.88281H9.97921C10.0552 3.29036 10.2134 3.67816 10.4442 4.02253C10.675 4.36691 10.9736 4.66064 11.3217 4.8858ZM5.87958 9.21984C5.46708 9.22194 5.06713 9.36188 4.7433 9.6174C4.41948 9.87292 4.19036 10.2294 4.09239 10.6301C3.99441 11.0307 4.0332 11.4527 4.20258 11.8288C4.37197 12.2049 4.66223 12.5136 5.02721 12.7058C4.82766 12.4303 4.70816 12.105 4.68191 11.7658C4.65566 11.4266 4.72369 11.0867 4.87848 10.7838C5.03327 10.4808 5.2688 10.2266 5.55904 10.0491C5.84927 9.87162 6.18293 9.77782 6.52313 9.77808C6.70808 9.7805 6.89174 9.80929 7.06856 9.86357V7.62174C6.88798 7.59466 6.70572 7.58043 6.52313 7.57914H6.42507V9.28375C6.24731 9.23607 6.06355 9.21454 5.87958 9.21984Z" fill="#FE2C55"/>
<path d="M12.988 5.87866V7.58334C11.8905 7.5812 10.8215 7.23381 9.9324 6.59036V11.0693C9.92768 13.3043 8.11455 15.1136 5.87962 15.1136C5.04957 15.1151 4.23951 14.859 3.56119 14.3806C4.11432 14.9756 4.8338 15.3901 5.62591 15.5704C6.41801 15.7506 7.24603 15.6881 8.00211 15.391C8.75819 15.0939 9.40729 14.576 9.86484 13.9048C10.3224 13.2336 10.5672 12.4401 10.5674 11.6277V7.16146C11.4595 7.80067 12.5298 8.14352 13.6272 8.14163V5.94669C13.4123 5.94605 13.1981 5.92326 12.988 5.87866Z" fill="#FE2C55"/>
<path d="M9.93225 11.0694V6.59042C10.824 7.23019 11.8945 7.57311 12.9921 7.57058V5.86597C12.3437 5.72904 11.7574 5.38503 11.3215 4.8858C10.9735 4.66064 10.6749 4.36691 10.4441 4.02253C10.2133 3.67816 10.0551 3.29036 9.9791 2.88281H8.3683V11.7045C8.35262 12.0885 8.21771 12.458 7.98232 12.7618C7.74693 13.0656 7.42275 13.2885 7.05484 13.3996C6.68693 13.5107 6.29356 13.5044 5.92939 13.3816C5.56522 13.2588 5.24835 13.0256 5.0228 12.7144C4.65776 12.5223 4.36744 12.2136 4.19801 11.8374C4.02858 11.4613 3.98977 11.0393 4.08775 10.6386C4.18574 10.2378 4.41488 9.88136 4.73875 9.62583C5.06263 9.3703 5.46264 9.23039 5.87517 9.22834C6.06019 9.23 6.24396 9.25872 6.42066 9.3136V7.60893C5.63678 7.62223 4.87371 7.86331 4.22448 8.30278C3.57525 8.74225 3.06791 9.36113 2.76432 10.084C2.46074 10.8068 2.37402 11.6023 2.51475 12.3736C2.65547 13.1448 3.01756 13.8585 3.55686 14.4275C4.24185 14.8901 5.05306 15.1298 5.87948 15.1136C8.11441 15.1136 9.92753 13.3043 9.93225 11.0694Z" fill="white"/>
</svg>
