<svg width="15" height="14" viewBox="0 0 15 14" fill="none" xmlns="http://www.w3.org/2000/svg">
<path d="M10.9333 14H3.53332V5.46663L8.16665 0.666626L8.81665 1.18329C8.88332 1.23885 8.93332 1.31663 8.96665 1.41663C8.99998 1.51663 9.01665 1.63885 9.01665 1.78329V1.94996L8.26665 5.46663H13.25C13.5167 5.46663 13.75 5.56663 13.95 5.76663C14.15 5.96663 14.25 6.19996 14.25 6.46663V7.83061C14.25 7.91018 14.2583 7.99163 14.275 8.07496C14.2917 8.15829 14.2833 8.23885 14.25 8.31663L12.15 13.15C12.0513 13.3861 11.8869 13.5868 11.6567 13.752C11.4266 13.9173 11.1854 14 10.9333 14ZM4.53332 13H11.15L13.25 8.01663V6.46663H7.03332L7.91665 2.31663L4.53332 5.88329V13ZM3.53332 5.46663V6.46663H1.31665V13H3.53332V14H0.31665V5.46663H3.53332Z" fill="#767B8A"/>
</svg>
